inDegrees=no
num_controls=7
num_derivatives=13
num_iterations=109
num_multipliers=7
num_parameters=0
num_slacks=7
num_states=26
objective=5.754624
objective_accelerations=0.648602
objective_balance=0.052359
objective_effort=0.516706
objective_height=4.516304
objective_ligament=0.020654
solver_duration=1279.126901
status=Solve_Succeeded
success=true
DataType=double
version=3
OpenSimVersion=4.4-2022-07-23-0e9fedc
endheader
time	/jointset/ground_pelvis/pelvis_tilt/value	/jointset/ground_pelvis/pelvis_tx/value	/jointset/ground_pelvis/pelvis_ty/value	/jointset/hip_l/hip_flexion_l/value	/jointset/hip_l/hip_adduction_l/value	/jointset/hip_l/hip_rotation_l/value	/jointset/back/lumbar_extension/value	/jointset/patellofemoral_l/patellar_flexion_l/value	/jointset/knee_l/knee_flexion_l/value	/jointset/knee_l/knee_adduction_l/value	/jointset/knee_l/knee_rotation_l/value	/jointset/ankle_l/ankle_angle_l/value	/jointset/subtalar_l/subtalar_angle_l/value	/jointset/ground_pelvis/pelvis_tilt/speed	/jointset/ground_pelvis/pelvis_tx/speed	/jointset/ground_pelvis/pelvis_ty/speed	/jointset/hip_l/hip_flexion_l/speed	/jointset/hip_l/hip_adduction_l/speed	/jointset/hip_l/hip_rotation_l/speed	/jointset/back/lumbar_extension/speed	/jointset/patellofemoral_l/patellar_flexion_l/speed	/jointset/knee_l/knee_flexion_l/speed	/jointset/knee_l/knee_adduction_l/speed	/jointset/knee_l/knee_rotation_l/speed	/jointset/ankle_l/ankle_angle_l/speed	/jointset/subtalar_l/subtalar_angle_l/speed	/forceset/tau_hip_flexion_l	/forceset/tau_hip_adduction_l	/forceset/tau_hip_rotation_l	/forceset/tau_knee_flexion_l	/forceset/tau_ankle_angle_l	/forceset/tau_subtalar_angle_l	/forceset/tau_lumbar_extension	lambda_cid13_p0	lambda_cid13_p1	lambda_cid13_p2	lambda_cid13_p3	lambda_cid13_p4	lambda_cid13_p5	lambda_cid14_p0	/jointset/ground_pelvis/pelvis_tilt/accel	/jointset/ground_pelvis/pelvis_tx/accel	/jointset/ground_pelvis/pelvis_ty/accel	/jointset/hip_l/hip_flexion_l/accel	/jointset/hip_l/hip_adduction_l/accel	/jointset/hip_l/hip_rotation_l/accel	/jointset/back/lumbar_extension/accel	/jointset/patellofemoral_l/patellar_flexion_l/accel	/jointset/knee_l/knee_flexion_l/accel	/jointset/knee_l/knee_adduction_l/accel	/jointset/knee_l/knee_rotation_l/accel	/jointset/ankle_l/ankle_angle_l/accel	/jointset/subtalar_l/subtalar_angle_l/accel	gamma_cid13_p0	gamma_cid13_p1	gamma_cid13_p2	gamma_cid13_p3	gamma_cid13_p4	gamma_cid13_p5	gamma_cid14_p0
1	-0.7499819214940407	-0.1923570035154843	0.5707063724314995	2.094394631932666	-0.3083133879677021	0.09700324134726308	-0.4363285714764731	1.113425976107435	1.113425976106063	-0.1745029907855075	0.1745180175742009	-0.04978158263386089	-0.06962799308982251	-0.01152077921169525	7.513950535692121e-05	-0.003118770395068309	0.01711787506087771	0.0003735867109941659	0.00242093153124292	0.0001840238555089078	0.006472963372244748	0.006472963372245827	-4.011717302330189e-05	0.0001068517334810884	0.001307851757171431	0.0005451270454924148	-0.4856892500372619	-0.01482393463606091	-0.01855576136625558	-0.2242402011603972	0.2516059011022937	0.03368593409566845	0.3773320775700826	33.19748300286427	-20.07590511077158	2.379558494871176	0.3210608051647397	-733.9804612491821	-45.24163415751368	-3.297688697586763	2.060897361717485	0.4054501746843937	1.73457362646219	-6.528955768504192	-0.2441274421863884	-1.548656966154566	0.007829118005074152	-4.225731382169759	-4.225731382167682	-0.02892843343001339	0.002139364592100609	0.004419251751030528	-0.1883042323112022	6.432631176235742e-10	3.847048172837862e-09	-6.796201257361413e-10	4.995648618367639e-10	1.239689651969559e-09	-3.837111415257911e-09	1.124855494601429e-09
1.01	-0.7499946081344103	-0.1923360020330198	0.5707618884976454	2.094239892804479	-0.3083211584696735	0.09694931991514824	-0.4363256679002267	1.113279442422204	1.113279442421268	-0.1745032021052365	0.1745188235847579	-0.04976809342080143	-0.06963123848033137	0.009019198502279047	0.004132807593390872	0.01422804148920847	-0.0481102843597154	-0.001933653859153804	-0.01321635360091217	0.0003688221220824603	-0.03577774969561509	-0.03577774969560742	-3.774792439239331e-06	7.062939524599512e-05	0.001398100279767802	-0.001198427660871187	-0.4858050873171033	-0.01481364603299844	-0.01856805610925071	-0.2242725083784816	0.2517613074561783	0.03371320633368253	0.3774513724294699	33.24237657538232	-20.09641237594487	2.383744302113711	0.2188351275708433	-734.1179161970417	-45.27547361062784	-3.303562448331198	2.055909633529887	0.4070730095583846	1.735642588147348	-6.526434141272537	-0.224917627975514	-1.572938161406684	0.01962479168477729	-4.224447880424349	-4.224447880424755	0.01966929126956634	-0.004064576763531669	0.01254406724593768	-0.1680146458823196	-2.658772275178788e-09	-7.109309365123022e-09	1.128967540481691e-08	1.453810530391987e-09	-5.239597210636998e-09	1.866240319892649e-08	-3.847797570319226e-09
1.02	-0.7498008226661763	-0.1922741942929362	0.5709910542063843	2.093431534459447	-0.3083521804300516	0.09673869085691764	-0.4363217524193148	1.112710460284002	1.112710460283602	-0.1745030992576171	0.1745197550628393	-0.0497534584395608	-0.06965204612912078	0.02977364250799823	0.008236391029203486	0.03161115812324119	-0.1136059682777541	-0.004276704971215569	-0.02892059371948431	0.0003864048167493266	-0.07801672721665992	-0.0780167272166547	2.271628683597689e-05	0.0001319453077003011	0.001537005391658576	-0.002967324610549907	-0.4859209245972655	-0.0148033574297317	-0.01858035085120826	-0.2243048155964925	0.2519167138102217	0.03374047857192496	0.3775706672884097	33.28443554980699	-20.11757326335925	2.389348097806783	0.1052676726851699	-734.3032129986137	-45.28793605231215	-3.326358052485362	2.103790620066567	0.4146332442401708	1.74183457641339	-6.582460667993419	-0.2512895505694244	-1.56204796343835	-0.02561399637649063	-4.22338427280667	-4.223384272806405	-0.0308986936918745	0.02164701473050844	0.01415056960992127	-0.1933726809744924	-4.471038170463316e-09	-1.094831319849488e-08	3.126690111530991e-08	1.861479500570784e-09	-8.941525723925299e-09	3.708197124883355e-08	-7.904434252291925e-09
1.03	-0.7493985728516618	-0.1921711118183202	0.5713941590468813	2.091967162601643	-0.308406637002321	0.09637094597403277	-0.4363182611054268	1.11171917168313	1.111719171683361	-0.1745027681096749	0.1745215129218773	-0.04973723618920637	-0.06969050886167404	0.05069731332721553	0.01238868941100678	0.0490086912433784	-0.1792857131006428	-0.006602467277928951	-0.04461273748127951	0.0003068960378667166	-0.1202369761488594	-0.1202369761488166	4.350247190524943e-05	0.0002073255679277296	0.001711239951044922	-0.004712749846691795	-0.4857313206384993	-0.01470740408852668	-0.0186058386780441	-0.2243173344957932	0.2520312724398132	0.03384005487955636	0.3775329252851345	33.33011060861546	-20.17172212905235	2.401299561322571	-0.02944719519408577	-734.2547483563686	-45.372211754301	-3.365745916477976	2.0898030231327	0.4168164178431093	1.738542324667674	-6.563329373687005	-0.2214028409641911	-1.570460774657664	0.0001363904098900179	-4.220740267661824	-4.220740267655928	0.01856197609861745	-0.001374616192679593	0.01963037045222146	-0.1632604306367339	-6.268102336181328e-09	-1.471469097365661e-08	5.132584039906766e-08	2.263571157500839e-09	-1.261511384589401e-08	5.545990719094183e-08	-1.195172382831617e-08
1.04	-0.748786456786915	-0.1920262487033471	0.5719712051475528	2.089845473698761	-0.308483987851706	0.09584674701499353	-0.4363157137375091	1.110305801580109	1.110305801580952	-0.1745022301596411	0.1745236529538514	-0.04971915749898492	-0.06974605244372946	0.0717468925578536	0.0165925191006227	0.06639941015787512	-0.2450693772935329	-0.00885556039426263	-0.06021140892736468	0.0001976156211880419	-0.1624330276504621	-0.1624330276503745	6.407671665795495e-05	0.0002083799136965615	0.001908293364398111	-0.006383494510942322	-0.4855417166796637	-0.01461145074750401	-0.01863132650565402	-0.2243298533950692	0.2521458310693281	0.0339396311869938	0.377495183281957	33.37274716737114	-20.22662090364614	2.41483511248531	-0.1749204122048219	-734.2565877068695	-45.43583512656492	-3.421862357743708	2.128972302350874	0.4249395058026942	1.740471735285321	-6.603244541993906	-0.2367557124934419	-1.543353500296259	-0.03156832393654808	-4.218544786687337	-4.21854478668565	-0.03094108175521582	0.006781831838690515	0.01871434040329241	-0.1784365665961835	-7.811448085302154e-09	-2.101680921535454e-08	6.726125182784673e-08	8.070950462055467e-10	-1.6421998504782e-08	7.404421124720263e-08	-1.631419795914157e-08
1.05	-0.7479630929135965	-0.1918390545481142	0.5727220715512309	2.087065446662271	-0.3085834768518513	0.09516706981317746	-0.4363144937108592	1.108470705461525	1.1084707054613	-0.1745014939703156	0.1745254609329918	-0.04969901982560267	-0.06981790772659725	0.09296029545296393	0.02085852639272533	0.08376761090811767	-0.3109526859837615	-0.01102630124135816	-0.07570656815031494	3.166724270914237e-05	-0.2045701682661215	-0.204570168266077	8.587897001403433e-05	0.0001441222549737671	0.00212128912278908	-0.0079718700021665	-0.485037786994896	-0.01444018086080964	-0.01867295186954257	-0.2243132236531832	0.2522175644935323	0.03410364826867836	0.3772817113757551	33.41947468807754	-20.31125872013271	2.434295120093423	-0.3477470871527858	-734.008246531134	-45.56236579622225	-3.495414062893273	2.122684017815801	0.4292633512365255	1.73405120946166	-6.583375144073297	-0.2048495303920561	-1.549994736241582	-0.01131646691367574	-4.208890347726407	-4.208890347733678	0.01914172311290764	-0.01441497135355142	0.02290134139279923	-0.1466897825307844	-9.346865133904319e-09	-2.739816934663172e-08	8.306780301115775e-08	-7.074613078467771e-10	-2.023304868044872e-08	9.263496430703069e-08	-2.068652160730451e-08
1.06	-0.746926563064407	-0.1916088339178951	0.5736464313553271	2.083626086316573	-0.3087041965123837	0.09433296149853986	-0.4363153748423188	1.106214719607047	1.106214719605738	-0.1745004595896203	0.1745263492540258	-0.04967669036506507	-0.06990517711280685	0.1143800877371559	0.02519781409786606	0.1010980902412517	-0.3769360391354043	-0.01310169247142033	-0.09109763149114379	-0.0002226160201194902	-0.2466109748306258	-0.2466109748306342	0.0001237149926473129	2.444833120421471e-05	0.002346650794611678	-0.009466315179191123	-0.4845338573100463	-0.01426891097410292	-0.01871457723334284	-0.2242965939113318	0.2522892979177149	0.03426766535037037	0.3770682394696443	33.46320012751718	-20.39663060280361	2.455311294917691	-0.5325758507073975	-733.8106688283987	-45.66903238503031	-3.586847841153797	2.170250180167316	0.4395955884103521	1.732927451863669	-6.62325343427695	-0.2176857890867247	-1.522534323871863	-0.04923530080675031	-4.199277976456375	-4.199277976456646	-0.02773432789981738	-0.00430142117077191	0.02118752308969918	-0.1596505037562134	-1.170097369328973e-08	-3.697324268956521e-08	9.481215919538011e-08	-1.306814584022888e-09	-2.479609818479503e-08	1.118340445586929e-07	-2.519734025805657e-08
1.07	-0.7456753036526007	-0.1913348714459343	0.5747437922532109	2.079526969145317	-0.3088454285023932	0.09334514651900341	-0.4363186836849806	1.103538742953506	1.103538742952093	-0.1744991111817134	0.1745262046651005	-0.04965230447754607	-0.07000719940385276	0.1358552560891853	0.02960504259452705	0.1183563301640297	-0.4428458144195362	-0.0151503597639155	-0.1064812849269043	-0.0003971844046910683	-0.2885749496881911	-0.288574949688198	0.0001380221429805056	-1.979481135795569e-05	0.002507227964289543	-0.01094825851390378	-0.4835650098509601	-0.01408791695405551	-0.01878251423461083	-0.2243305450973393	0.2524019805201839	0.03447750634220025	0.3765940954614388	33.54130617679124	-20.50948420142656	2.482491105756153	-0.7491732191483198	-733.2897223478658	-45.84075513848526	-3.696814619295842	2.133666011414941	0.442840445853213	1.719602441977279	-6.568606491331679	-0.1993125115838864	-1.548694187925677	0.004727605505985629	-4.193540305776129	-4.193540305775545	0.01480962009276132	0.0005213139763141604	0.009999994669454155	-0.1439887207347243	-1.409862967346149e-08	-4.671819439482085e-08	1.063404411775232e-07	-1.857486845418343e-09	-2.939914765343281e-08	1.31065482639708e-07	-2.97155256642655e-08
